<svg width="24" height="25" viewBox="0 0 24 25" fill="none" xmlns="http://www.w3.org/2000/svg">
<path d="M20 13.425V6.42496C20 5.32039 19.1046 4.42496 18 4.42496H6C4.89543 4.42496 4 5.32039 4 6.42496V13.425M20 13.425V18.425C20 19.5295 19.1046 20.425 18 20.425H6C4.89543 20.425 4 19.5295 4 18.425V13.425M20 13.425H17.4142C17.149 13.425 16.8946 13.5303 16.7071 13.7179L14.2929 16.1321C14.1054 16.3196 13.851 16.425 13.5858 16.425H10.4142C10.149 16.425 9.89464 16.3196 9.70711 16.1321L7.29289 13.7179C7.10536 13.5303 6.851 13.425 6.58579 13.425H4" stroke="white" stroke-width="1.8" stroke-linecap="round" stroke-linejoin="round"/>
</svg>
