<svg width="303" height="85" viewBox="0 0 303 85" fill="none" xmlns="http://www.w3.org/2000/svg">
<path d="M55.4883 24.4943C67.8865 24.4943 74.0856 30.4014 74.0856 42.2158C74.0856 54.0301 67.8865 59.9373 55.4883 59.9373H40.1365V24.4943H55.4883ZM51.5216 51.4371H55.2822C60.056 51.4371 62.4429 48.8785 62.4429 43.7612V40.6703C62.4429 35.553 60.056 32.9944 55.2822 32.9944H51.5216V51.4371ZM113.872 35.3641C113.872 37.5278 113.289 39.4854 112.121 41.237C110.953 42.9885 109.253 44.2764 107.021 45.1007L114.903 59.9373H102.127L95.8418 47.0068H91.6175V59.9373H80.2325V24.4943H101.921C104.462 24.4943 106.626 24.9923 108.412 25.9882C110.232 26.9499 111.588 28.2721 112.481 29.955C113.409 31.6035 113.872 33.4065 113.872 35.3641ZM102.281 35.8278C102.281 34.9005 101.972 34.1278 101.354 33.5096C100.736 32.8914 99.9802 32.5823 99.0873 32.5823H91.6175V39.1248H99.0873C99.9802 39.1248 100.736 38.8157 101.354 38.1975C101.972 37.545 102.281 36.7551 102.281 35.8278ZM144.077 59.9373L142.583 54.9402H130.168L128.674 59.9373H117.031L129.962 24.4943H143.201L156.132 59.9373H144.077ZM132.538 47.0068H140.214L136.504 34.3853H136.298L132.538 47.0068ZM187.46 59.9373L182.876 38.3521H182.67L178.085 59.9373H165.566L157.272 24.4943H169.121L173.191 44.5855H173.397L177.415 24.4943H188.645L192.921 44.5855H193.127L196.939 24.4943H208.273L199.979 59.9373H187.46ZM212.858 59.9373V24.4943H224.243V59.9373H212.858ZM252.766 33.5611V59.9373H241.381V33.5611H229.738V24.4943H264.357V33.5611H252.766Z" fill="#4F46E5"/>
<path d="M258.499 56.5565C258.863 56.5665 259.167 56.2795 259.177 55.9154C259.187 55.5514 258.9 55.2481 258.536 55.2381L258.499 56.5565ZM37.258 67.2692C124.414 56.6194 172.833 54.1969 258.499 56.5565L258.536 55.2381C172.801 52.8766 124.317 55.3026 37.0981 65.9601L37.258 67.2692Z" fill="#F23D3D"/>
<path d="M258.518 52.6501L258.793 56.5972L262.741 56.3213C262.667 55.2745 262.181 54.2996 261.389 53.6111C260.597 52.9227 259.564 52.577 258.518 52.6501Z" fill="#F23D3D"/>
<path d="M271.024 35.6886L278.063 41.8072L266.429 55.1896C265.966 54.7869 265.68 54.2177 265.634 53.6057C265.589 52.9937 265.786 52.3884 266.184 51.9213L266.18 51.9176C265.781 52.3875 265.211 52.6794 264.596 52.7291C263.981 52.7788 263.371 52.5821 262.901 52.1825C262.431 51.7828 262.14 51.2128 262.09 50.5979C262.04 49.983 262.237 49.3736 262.637 48.9036L262.625 48.8939C262.215 49.3375 261.648 49.6041 261.045 49.6374C260.441 49.6707 259.849 49.468 259.392 49.0723L271.024 35.6886Z" fill="#F23D3D"/>
<path d="M281.285 34.0306L278.227 31.3727C277.699 30.9139 277.011 30.6835 276.313 30.7323C275.615 30.7811 274.965 31.105 274.506 31.6328L272.566 33.8653L279.604 39.9839L281.545 37.7514C282.004 37.2234 282.234 36.5349 282.185 35.8371C282.136 35.1394 281.812 34.4896 281.285 34.0306Z" fill="#4F46E5"/>
</svg>
