<svg width="48" height="48" viewBox="0 0 48 48" fill="none" xmlns="http://www.w3.org/2000/svg">
<path d="M28 5C27 4.5 26.0067 3.99672 23.9999 4.00002C16.5459 4.00002 10.4999 10.272 10.4999 18.01V19.42C10.5023 21.1031 10.022 22.7516 9.11588 24.17L6.89988 27.618C4.87788 30.768 6.42187 35.05 9.93987 36.046C19.1324 38.6493 28.8673 38.6493 38.0599 36.046C41.5779 35.05 43.1219 30.768 41.0999 27.62L38.8839 24.17C37.9778 22.7516 37.4975 21.1031 37.4999 19.42V18.01C37.4999 15.862 37.0339 14.826 36.1999 13.006M32.9999 38C31.6899 41.496 28.1559 44 23.9999 44C23.5105 44 23.0305 43.9667 22.5599 43.9M14.9999 38C15.5416 39.4277 16.4377 40.6941 17.6039 41.68" stroke="#4F46E5" stroke-width="3" stroke-linecap="round"/>
<circle cx="33" cy="8" r="3" fill="#F23D3D"/>
</svg>
