<svg width="24" height="25" viewBox="0 0 24 25" fill="none" xmlns="http://www.w3.org/2000/svg">
<path d="M17 20.225H22V18.225C22 16.5681 20.6569 15.225 19 15.225C18.0444 15.225 17.1931 15.6718 16.6438 16.3679M17 20.225H7M17 20.225V18.225C17 17.5687 16.8736 16.942 16.6438 16.3679M7 20.225H2V18.225C2 16.5681 3.34315 15.225 5 15.225C5.95561 15.225 6.80686 15.6718 7.35625 16.3679M7 20.225V18.225C7 17.5687 7.12642 16.942 7.35625 16.3679M7.35625 16.3679C8.0935 14.526 9.89482 13.225 12 13.225C14.1052 13.225 15.9065 14.526 16.6438 16.3679M15 7.22498C15 8.88183 13.6569 10.225 12 10.225C10.3431 10.225 9 8.88183 9 7.22498C9 5.56812 10.3431 4.22498 12 4.22498C13.6569 4.22498 15 5.56812 15 7.22498ZM21 10.225C21 11.3295 20.1046 12.225 19 12.225C17.8954 12.225 17 11.3295 17 10.225C17 9.12041 17.8954 8.22498 19 8.22498C20.1046 8.22498 21 9.12041 21 10.225ZM7 10.225C7 11.3295 6.10457 12.225 5 12.225C3.89543 12.225 3 11.3295 3 10.225C3 9.12041 3.89543 8.22498 5 8.22498C6.10457 8.22498 7 9.12041 7 10.225Z" stroke="white" stroke-width="1.8" stroke-linecap="round" stroke-linejoin="round"/>
</svg>
