<svg width="24" height="25" viewBox="0 0 24 25" fill="none" xmlns="http://www.w3.org/2000/svg">
<path d="M3 12.625L5 10.625M5 10.625L12 3.62497L19 10.625M5 10.625V20.625C5 21.1773 5.44772 21.625 6 21.625H9M19 10.625L21 12.625M19 10.625V20.625C19 21.1773 18.5523 21.625 18 21.625H15M9 21.625C9.55228 21.625 10 21.1773 10 20.625V16.625C10 16.0727 10.4477 15.625 11 15.625H13C13.5523 15.625 14 16.0727 14 16.625V20.625C14 21.1773 14.4477 21.625 15 21.625M9 21.625H15" stroke="#EEF2FF" stroke-width="1.8" stroke-linecap="round" stroke-linejoin="round"/>
</svg>
