<svg width="28" height="29" viewBox="0 0 28 29" fill="none" xmlns="http://www.w3.org/2000/svg">
<path d="M23.0999 14.5001C23.0999 19.6701 18.9199 23.8501 13.7499 23.8501C8.5799 23.8501 4.3999 19.6701 4.3999 14.5001C4.3999 9.3301 8.5799 5.1501 13.7499 5.1501C18.9199 5.1501 23.0999 9.3301 23.0999 14.5001ZM5.4999 14.5001C5.4999 19.0651 9.1849 22.7501 13.7499 22.7501C18.3149 22.7501 21.9999 19.0651 21.9999 14.5001C21.9999 9.9351 18.3149 6.2501 13.7499 6.2501C9.1849 6.2501 5.4999 9.9351 5.4999 14.5001Z" fill="#4F46E5"/>
<path d="M14.6851 9.93496L10.1201 14.5L14.6851 19.065L13.9151 19.835L8.58008 14.5L13.9151 9.16496L14.6851 9.93496Z" fill="#4F46E5"/>
<path d="M9.3501 15.05V13.95L18.7001 13.95V15.05L9.3501 15.05Z" fill="#4F46E5"/>
</svg>
