<svg width="29" height="30" viewBox="0 0 29 30" fill="none" xmlns="http://www.w3.org/2000/svg">
<mask id="mask0_3_5956" style="mask-type:luminance" maskUnits="userSpaceOnUse" x="0" y="0" width="29" height="30">
<rect x="0.219238" y="0.284668" width="28.7758" height="28.7758" fill="white"/>
</mask>
<g mask="url(#mask0_3_5956)">
<path fill-rule="evenodd" clip-rule="evenodd" d="M19.5314 14.3246H9.78472C9.01573 14.3246 8.39234 14.948 8.39234 15.717V22.6789C8.39234 23.4479 9.01573 24.0713 9.78472 24.0713H19.5314C20.3004 24.0713 20.9237 23.4479 20.9237 22.6789V15.717C20.9237 14.948 20.3004 14.3246 19.5314 14.3246ZM9.78476 12.9321C8.24678 12.9321 7 14.1789 7 15.7169V22.6788C7 24.2168 8.24678 25.4635 9.78476 25.4635H19.5314C21.0694 25.4635 22.3162 24.2168 22.3162 22.6788V15.7169C22.3162 14.1789 21.0694 12.9321 19.5314 12.9321H9.78476ZM9.78482 8.75504C9.78482 7.01397 10.7137 5.40515 12.2215 4.53462C13.7293 3.66408 15.587 3.66408 17.0948 4.53461C18.6026 5.40515 19.5315 7.01397 19.5315 8.75504V12.9322H18.1391V8.75504C18.1391 6.83257 16.5806 5.2741 14.6582 5.27409C12.7357 5.27409 11.1772 6.83255 11.1772 8.75502V12.9322H9.78482V8.75504Z" fill="#9E9E9E"/>
</g>
</svg>
