<svg width="22" height="22" viewBox="0 0 22 22" fill="none" xmlns="http://www.w3.org/2000/svg">
<path d="M5.1227 11.302C4.99629 11.1754 4.92529 11.0039 4.92529 10.825C4.92529 10.6461 4.99629 10.4745 5.1227 10.348L6.9227 8.54798C7.05066 8.42875 7.2199 8.36384 7.39477 8.36693C7.56964 8.37001 7.73649 8.44085 7.86016 8.56453C7.98383 8.6882 8.05467 8.85504 8.05776 9.02991C8.06084 9.20479 7.99593 9.37403 7.8767 9.50198L7.2287 10.15H13.6997C13.8787 10.15 14.0504 10.2211 14.177 10.3477C14.3036 10.4743 14.3747 10.646 14.3747 10.825C14.3747 11.004 14.3036 11.1757 14.177 11.3023C14.0504 11.4289 13.8787 11.5 13.6997 11.5H7.2287L7.8767 12.148C7.94302 12.2098 7.99621 12.2843 8.0331 12.3671C8.06999 12.4499 8.08983 12.5393 8.09143 12.6299C8.09303 12.7205 8.07636 12.8106 8.04241 12.8946C8.00846 12.9787 7.95793 13.055 7.89383 13.1191C7.82974 13.1832 7.75339 13.2337 7.66934 13.2677C7.58529 13.3016 7.49526 13.3183 7.40463 13.3167C7.314 13.3151 7.22461 13.2953 7.14181 13.2584C7.05902 13.2215 6.98449 13.1683 6.9227 13.102L5.1227 11.302Z" fill="#F23D3D"/>
<path fill-rule="evenodd" clip-rule="evenodd" d="M12.7501 1.15002H13.7491C14.9803 1.15002 15.9721 1.15002 16.7524 1.25532C17.5624 1.36332 18.2446 1.59732 18.7864 2.13822C19.3282 2.68002 19.5604 3.36222 19.6702 4.17222C19.7746 4.95252 19.7746 5.94522 19.7746 7.17552V14.4745C19.7746 15.7048 19.7746 16.6975 19.6702 17.4778C19.5613 18.2878 19.3282 18.97 18.7864 19.5118C18.2446 20.0536 17.5624 20.2858 16.7524 20.3956C15.9721 20.5 14.9794 20.5 13.7491 20.5H12.7501C11.5198 20.5 10.5271 20.5 9.74681 20.3956C8.93681 20.2858 8.25461 20.0536 7.71281 19.5118C7.35461 19.1518 7.13051 18.7306 6.98831 18.25C6.13241 18.2491 5.41871 18.2392 4.84091 18.1618C4.15331 18.0691 3.55751 17.8693 3.08141 17.3932C2.60531 16.9171 2.40551 16.3222 2.31281 15.6337C2.22461 14.9767 2.22461 14.1433 2.22461 13.1227V8.52732C2.22461 7.50762 2.22461 6.67512 2.31281 6.01632C2.40551 5.32962 2.60531 4.73382 3.08141 4.25772C3.55751 3.78162 4.15241 3.58182 4.84091 3.48912C5.41871 3.41172 6.13241 3.40182 6.98831 3.40092C7.13051 2.92032 7.35461 2.49822 7.71371 2.13912C8.25461 1.59732 8.93771 1.36512 9.74771 1.25622C10.5271 1.15092 11.5198 1.15092 12.7501 1.15092M6.72641 15.3286C6.73001 15.9091 6.73901 16.4311 6.77141 16.8991C6.02081 16.8964 5.46281 16.8829 5.02091 16.8235C4.48271 16.7515 4.21991 16.6219 4.03631 16.4383C3.85271 16.2556 3.72311 15.9919 3.65111 15.4537C3.57641 14.8966 3.57461 14.155 3.57461 13.075V8.57502C3.57461 7.49502 3.57641 6.75342 3.65111 6.19632C3.72311 5.65812 3.85271 5.39532 4.03631 5.21172C4.21901 5.02812 4.48271 4.89852 5.02091 4.82652C5.46281 4.76712 6.02081 4.75452 6.77231 4.75092C6.73901 5.21892 6.73001 5.74092 6.72641 6.32142C6.72545 6.50045 6.79565 6.67251 6.92157 6.79978C7.04748 6.92704 7.21879 6.99907 7.39781 7.00002C7.57683 7.00098 7.7489 6.93078 7.87616 6.80487C8.00342 6.67896 8.07545 6.50765 8.07641 6.32862C8.08181 5.34492 8.10701 4.64742 8.20421 4.11732C8.29871 3.60792 8.44901 3.31182 8.66771 3.09312C8.91701 2.84382 9.26711 2.68182 9.92771 2.59272C10.6072 2.50182 11.5081 2.50002 12.7996 2.50002H13.6996C14.992 2.50002 15.8929 2.50182 16.5724 2.59272C17.233 2.68182 17.5822 2.84472 17.8324 3.09312C18.0808 3.34242 18.2428 3.69162 18.3319 4.35312C18.4237 5.03172 18.4246 5.93352 18.4246 7.22502V14.425C18.4246 15.7165 18.4237 16.6174 18.3319 17.2978C18.2428 17.9584 18.0808 18.3076 17.8315 18.5569C17.5822 18.8062 17.233 18.9682 16.5724 19.0573C15.8929 19.1482 14.992 19.15 13.6996 19.15H12.7996C11.5081 19.15 10.6072 19.1482 9.92681 19.0573C9.26711 18.9682 8.91701 18.8053 8.66771 18.5569C8.44901 18.3373 8.29871 18.0421 8.20421 17.5327C8.10701 17.0026 8.08181 16.3051 8.07641 15.3214C8.07594 15.2328 8.05801 15.1451 8.02365 15.0634C7.98929 14.9817 7.93917 14.9075 7.87616 14.8452C7.81315 14.7828 7.73847 14.7335 7.65639 14.7C7.57432 14.6665 7.48645 14.6496 7.39781 14.65C7.30917 14.6505 7.22149 14.6684 7.13977 14.7028C7.05806 14.7371 6.98391 14.7873 6.92157 14.8503C6.85922 14.9133 6.8099 14.988 6.77641 15.07C6.74293 15.1521 6.72594 15.24 6.72641 15.3286Z" fill="#F23D3D"/>
</svg>
