<svg width="28" height="30" viewBox="0 0 28 30" fill="none" xmlns="http://www.w3.org/2000/svg">
<mask id="mask0_3_5946" style="mask-type:luminance" maskUnits="userSpaceOnUse" x="0" y="0" width="28" height="30">
<rect x="0.219238" y="0.375122" width="27.0469" height="28.7758" fill="white"/>
</mask>
<g mask="url(#mask0_3_5946)">
<path fill-rule="evenodd" clip-rule="evenodd" d="M4.72705 5.17114H22.7583C24.0031 5.17114 25.0122 6.24476 25.0122 7.56913V21.957C25.0122 23.2814 24.0031 24.355 22.7583 24.355H4.72705C3.48225 24.355 2.47314 23.2814 2.47314 21.957V7.56913C2.47314 6.25024 3.4874 5.17114 4.72705 5.17114V5.17114ZM22.7582 9.2237V7.56909H4.72698V9.2237L13.7426 14.0197L22.7582 9.2237V9.2237ZM22.7582 11.9094L14.2497 16.4296C13.9307 16.6006 13.5544 16.6006 13.2355 16.4296L4.72698 11.9094V21.957H22.7582V11.9094V11.9094Z" fill="#9E9E9E"/>
</g>
</svg>
