<svg width="28" height="29" viewBox="0 0 28 29" fill="none" xmlns="http://www.w3.org/2000/svg">
<path d="M4.9001 14.4999C4.9001 9.3299 9.0801 5.1499 14.2501 5.1499C19.4201 5.1499 23.6001 9.3299 23.6001 14.4999C23.6001 19.6699 19.4201 23.8499 14.2501 23.8499C9.0801 23.8499 4.9001 19.6699 4.9001 14.4999ZM22.5001 14.4999C22.5001 9.9349 18.8151 6.2499 14.2501 6.2499C9.6851 6.2499 6.0001 9.9349 6.0001 14.4999C6.0001 19.0649 9.6851 22.7499 14.2501 22.7499C18.8151 22.7499 22.5001 19.0649 22.5001 14.4999Z" fill="#4F46E5"/>
<path d="M13.3149 19.065L17.8799 14.5L13.3149 9.93504L14.0849 9.16504L19.4199 14.5L14.0849 19.835L13.3149 19.065Z" fill="#4F46E5"/>
<path d="M18.6499 13.95V15.05L9.2999 15.05V13.95L18.6499 13.95Z" fill="#4F46E5"/>
</svg>
