<svg width="24" height="25" viewBox="0 0 24 25" fill="none" xmlns="http://www.w3.org/2000/svg">
<path d="M10.3246 4.54231C10.751 2.7859 13.249 2.7859 13.6754 4.54232C13.9508 5.67694 15.2507 6.21538 16.2478 5.60786C17.7913 4.6674 19.5576 6.43371 18.6172 7.97719C18.0096 8.97426 18.5481 10.2742 19.6827 10.5496C21.4391 10.976 21.4391 13.474 19.6827 13.9004C18.5481 14.1758 18.0096 15.4758 18.6172 16.4728C19.5576 18.0163 17.7913 19.7826 16.2478 18.8422C15.2507 18.2346 13.9508 18.7731 13.6754 19.9077C13.249 21.6641 10.751 21.6641 10.3246 19.9077C10.0492 18.7731 8.74926 18.2346 7.75219 18.8422C6.2087 19.7826 4.44239 18.0163 5.38285 16.4728C5.99038 15.4758 5.45193 14.1758 4.31731 13.9004C2.5609 13.474 2.5609 10.976 4.31731 10.5496C5.45193 10.2742 5.99037 8.97426 5.38285 7.97719C4.44239 6.43371 6.2087 4.6674 7.75219 5.60786C8.74926 6.21538 10.0492 5.67694 10.3246 4.54231Z" stroke="#CAD9ED" stroke-width="1.8" stroke-linecap="round" stroke-linejoin="round"/>
<path d="M15 12.225C15 13.8819 13.6569 15.225 12 15.225C10.3431 15.225 9 13.8819 9 12.225C9 10.5682 10.3431 9.22501 12 9.22501C13.6569 9.22501 15 10.5682 15 12.225Z" stroke="#CAD9ED" stroke-width="1.8" stroke-linecap="round" stroke-linejoin="round"/>
</svg>
